<svg width="10" height="10" viewBox="0 0 10 10" fill="none" xmlns="http://www.w3.org/2000/svg">
<path fill-rule="evenodd" clip-rule="evenodd" d="M8.56906 1.90238C8.6992 1.77221 8.6992 1.56115 8.56906 1.43098C8.43886 1.3008 8.2278 1.3008 8.0976 1.43098L5 4.5286L1.90236 1.43098C1.77219 1.3008 1.56114 1.3008 1.43096 1.43098C1.30078 1.56115 1.30078 1.77221 1.43096 1.90238L4.52859 5.00001L1.43096 8.09761C1.30078 8.22781 1.30078 8.43888 1.43096 8.56908C1.56114 8.69921 1.77219 8.69921 1.90236 8.56908L5 5.47142L8.0976 8.56908C8.2278 8.69921 8.43886 8.69921 8.56906 8.56908C8.6992 8.43888 8.6992 8.22781 8.56906 8.09761L5.4714 5.00001L8.56906 1.90238Z" fill="black"/>
</svg>
