<svg width="20" height="16" viewBox="0 0 20 16" fill="none" xmlns="http://www.w3.org/2000/svg">
<path fill-rule="evenodd" clip-rule="evenodd" d="M17.0243 2.22428C17.2586 1.98996 17.2586 1.61007 17.0243 1.37576C16.79 1.14143 16.4101 1.14143 16.1757 1.37576L13.8194 3.73216C12.6478 3.26007 11.3651 3.00002 10 3.00002C6.16944 3.00002 2.98767 5.04768 1.0912 8.08204C0.969599 8.27661 0.9696 8.52348 1.0912 8.71804C2.08354 10.3058 3.42777 11.6234 5.03274 12.5188L2.97574 14.5757C2.74142 14.8101 2.74142 15.19 2.97574 15.4244C3.21006 15.6586 3.58995 15.6586 3.82426 15.4244L6.18068 13.0679C7.35219 13.54 8.6349 13.8 10 13.8C13.8305 13.8 17.0123 11.7524 18.9088 8.71804C19.0304 8.52348 19.0304 8.27661 18.9088 8.08204C17.9165 6.4943 16.5723 5.17671 14.9673 4.28127L17.0243 2.22428ZM12.8852 4.66635C11.984 4.36334 11.0171 4.20002 10 4.20002C6.76343 4.20002 4.03543 5.85381 2.31547 8.40004C3.24741 9.77967 4.47531 10.8973 5.9197 11.6318L12.8852 4.66635ZM7.11487 12.1337L14.0804 5.16824C15.5247 5.90275 16.7527 7.0204 17.6846 8.40004C15.9646 10.9462 13.2365 12.6 10 12.6C8.9829 12.6 8.01603 12.4367 7.11487 12.1337Z" fill="black"/>
</svg>
