<svg width="20" height="16" viewBox="0 0 20 16" fill="none" xmlns="http://www.w3.org/2000/svg">
<path fill-rule="evenodd" clip-rule="evenodd" d="M10 12.6C6.76343 12.6 4.03543 10.9462 2.31547 8.40002C4.03543 5.8538 6.76343 4.2 10 4.2C13.2365 4.2 15.9646 5.8538 17.6846 8.40002C15.9646 10.9462 13.2365 12.6 10 12.6ZM10 3C6.16944 3 2.98767 5.04766 1.0912 8.08202C0.969599 8.27659 0.9696 8.52347 1.0912 8.71802C2.98767 11.7523 6.16944 13.8 10 13.8C13.8305 13.8 17.0123 11.7523 18.9088 8.71802C19.0304 8.52347 19.0304 8.27659 18.9088 8.08202C17.0123 5.04766 13.8305 3 10 3ZM10 10.8C11.3255 10.8 12.4 9.7255 12.4 8.40001C12.4 7.07452 11.3255 6.00001 10 6.00001C8.67453 6.00001 7.60001 7.07452 7.60001 8.40001C7.60001 9.7255 8.67453 10.8 10 10.8Z" fill="black"/>
</svg>
