<svg width="10" height="10" viewBox="0 0 10 10" fill="none" xmlns="http://www.w3.org/2000/svg">
<path fill-rule="evenodd" clip-rule="evenodd" d="M1.99998 0.666656C1.63179 0.666656 1.33331 0.965136 1.33331 1.33332V8.66666C1.33331 9.03486 1.63179 9.33332 1.99998 9.33332H6.99998C7.18405 9.33332 7.33331 9.18406 7.33331 8.99999C7.33331 8.81592 7.18405 8.66666 6.99998 8.66666H1.99998V1.33332H6.99998C7.18405 1.33332 7.33331 1.18408 7.33331 0.99999C7.33331 0.815896 7.18405 0.666656 6.99998 0.666656H1.99998ZM8.40238 3.26429C8.27218 3.13411 8.06111 3.13411 7.93091 3.26429C7.80078 3.39446 7.80078 3.60552 7.93091 3.73569L8.86191 4.66666H4.33331C4.14922 4.66666 3.99998 4.8159 3.99998 4.99999C3.99998 5.18408 4.14922 5.33332 4.33331 5.33332H8.86191L7.93091 6.26429C7.80078 6.39446 7.80078 6.60552 7.93091 6.73572C8.06111 6.86586 8.27218 6.86586 8.40238 6.73572L9.90238 5.23569C10.0325 5.10552 10.0325 4.89446 9.90238 4.76429L8.40238 3.26429Z" fill="black"/>
</svg>
